<svg xmlns="http://www.w3.org/2000/svg" width="39" height="39" viewBox="0 0 39 39">
  <g id="그룹_15" data-name="그룹 15" transform="translate(-2269 -3367)">
    <rect id="사각형_43" data-name="사각형 43" width="39" height="39" transform="translate(2269 3367)" fill="none"/>
    <path id="패스_13" data-name="패스 13" d="M32.109.927C27.392-.9,22.05.162,17.535,2.44,12.158,5.153,7.613,9.515,7.411,15.535c-.073,2.148,1.5,6.03,2.433,7.968C11.2,26.33,13.339,28.721,13.55,31.7a2.777,2.777,0,0,1-.869,2.139,2.321,2.321,0,0,1-1.141.589,10.258,10.258,0,0,1-11.1-4.262A.239.239,0,0,0,0,30.292a5.778,5.778,0,0,0,1.971,4.133A9.054,9.054,0,0,0,6.224,36.3,16.938,16.938,0,0,0,16.6,35.168a8.919,8.919,0,0,0,3.075-2.721,11.512,11.512,0,0,0-.149-12.631.126.126,0,0,1,.175-.178c2.013,1.409,3.133,3.778,3.831,6.182.891,3.066-.84,4.818-1.243,7.414a.1.1,0,0,0,.167.085c1.728-1.754,3.8-3.219,5.5-5a7.809,7.809,0,0,0,1.6-2.11A11.586,11.586,0,0,0,30.1,22.38a10.021,10.021,0,0,0-.493-4.335,22.988,22.988,0,0,0-3.015-5.28,13.493,13.493,0,0,1-2.3-7.264,5.941,5.941,0,0,1,.575-1.7,2.741,2.741,0,0,1,2.2-1.2,9.829,9.829,0,0,1,4.521.627,13.042,13.042,0,0,1,1.83,1.359c6.071,5.333,1.576-2.545-1.307-3.659" transform="translate(2270 3368)" fill="#669525"/>
  </g>
</svg>
