<svg id="logo" xmlns="http://www.w3.org/2000/svg" xmlns:xlink="http://www.w3.org/1999/xlink" width="135.294" height="37.114" viewBox="0 0 135.294 37.114">
  <defs>
    <clipPath id="clip-path">
      <rect id="사각형_18" data-name="사각형 18" width="135.294" height="37.114" fill="none"/>
    </clipPath>
  </defs>
  <g id="그룹_4" data-name="그룹 4" clip-path="url(#clip-path)">
    <path id="패스_6" data-name="패스 6" d="M32.109.927C27.392-.9,22.05.162,17.535,2.44,12.158,5.153,7.613,9.515,7.411,15.535c-.073,2.148,1.5,6.03,2.433,7.968C11.2,26.33,13.339,28.721,13.55,31.7a2.777,2.777,0,0,1-.869,2.139,2.321,2.321,0,0,1-1.141.589,10.258,10.258,0,0,1-11.1-4.262A.239.239,0,0,0,0,30.292a5.778,5.778,0,0,0,1.971,4.133A9.054,9.054,0,0,0,6.224,36.3,16.938,16.938,0,0,0,16.6,35.168a8.919,8.919,0,0,0,3.075-2.721,11.512,11.512,0,0,0-.149-12.631.126.126,0,0,1,.175-.178c2.013,1.409,3.133,3.778,3.831,6.182.891,3.066-.84,4.818-1.243,7.414a.1.1,0,0,0,.167.085c1.728-1.754,3.8-3.219,5.5-5a7.809,7.809,0,0,0,1.6-2.11A11.586,11.586,0,0,0,30.1,22.38a10.021,10.021,0,0,0-.493-4.335,22.988,22.988,0,0,0-3.015-5.28,13.493,13.493,0,0,1-2.3-7.264,5.941,5.941,0,0,1,.575-1.7,2.741,2.741,0,0,1,2.2-1.2,9.829,9.829,0,0,1,4.521.627,13.042,13.042,0,0,1,1.83,1.359c6.071,5.333,1.576-2.545-1.307-3.659" fill="#669525"/>
    <rect id="사각형_17" data-name="사각형 17" width="5.943" height="24.736" transform="translate(34.044 11.913)" fill="#362f2d"/>
    <path id="패스_7" data-name="패스 7" d="M47.827,11.913h.318a4.2,4.2,0,0,1,3.944,2.755L55,22.6c.5,1.428.9,2.989,1.362,4.483h.166c.5-1.494.9-3.055,1.361-4.483l2.8-7.906a4.181,4.181,0,0,1,3.94-2.785A3.487,3.487,0,0,1,68.112,15.4V36.649H62.7V28.183a74.025,74.025,0,0,1,.8-8.567h-.166l-2.058,5.91-2.758,7.5a2.336,2.336,0,0,1-4.382.007l-2.788-7.509-1.992-5.91H49.22a82.049,82.049,0,0,1,.764,8.567v8.466H44.671V15.069a3.156,3.156,0,0,1,3.156-3.156" fill="#362f2d"/>
    <path id="패스_8" data-name="패스 8" d="M72.8,11.912h8.7c5.412,0,9.895,1.959,9.895,8.069,0,5.877-4.516,8.467-9.762,8.467H78.741v8.2H72.8Zm8.533,11.854c2.889,0,4.283-1.361,4.283-3.785,0-2.49-1.594-3.354-4.449-3.354H78.741v7.139Z" fill="#362f2d"/>
    <path id="패스_9" data-name="패스 9" d="M93.487,24.165c0-8.1,4.582-12.684,11.323-12.684s11.322,4.616,11.322,12.684c0,8.1-4.582,12.949-11.322,12.949S93.487,32.267,93.487,24.165m16.6,0c0-4.781-2.025-7.6-5.279-7.6s-5.246,2.823-5.246,7.6S101.556,32,104.81,32s5.279-3.055,5.279-7.836" fill="#362f2d"/>
    <path id="패스_10" data-name="패스 10" d="M119.721,11.913h5.943V31.669h9.629v4.98H119.721Z" fill="#362f2d"/>
  </g>
</svg>
